HIERARCHY
ROOT root
{
	OFFSET 0.000000 0.000000 0.000000
	CHANNELS 6 Xposition Yposition Zposition Zrotation Yrotation Xrotation
	JOINT lhip
	{
		OFFSET 0.058581 -0.082280 -0.017664
		CHANNELS 3 Zrotation Yrotation Xrotation
		JOINT lknee
		{
			OFFSET 0.043451 -0.386469 0.008037
			CHANNELS 3 Zrotation Yrotation Xrotation
			JOINT lankle
			{
				OFFSET -0.014790 -0.426874 -0.037428
				CHANNELS 3 Zrotation Yrotation Xrotation
				JOINT ltoe
				{
					OFFSET 0.041054 -0.060286 0.122042
					CHANNELS 3 Zrotation Yrotation Xrotation
					End Site
					{
						OFFSET 0.000000 0.000000 0.000000
					}
				}
			}
		}
	}
	JOINT rhip
	{
		OFFSET -0.060310 -0.090513 -0.013543
		CHANNELS 3 Zrotation Yrotation Xrotation
		JOINT rknee
		{
			OFFSET -0.043257 -0.383688 -0.004843
			CHANNELS 3 Zrotation Yrotation Xrotation
			JOINT rankle
			{
				OFFSET 0.019056 -0.420046 -0.034562
				CHANNELS 3 Zrotation Yrotation Xrotation
				JOINT rtoe
				{
					OFFSET -0.034840 -0.062106 0.130323
					CHANNELS 3 Zrotation Yrotation Xrotation
					End Site
					{
						OFFSET 0.000000 0.000000 0.000000
					}
				}
			}
		}
	}
	JOINT lowerback
	{
		OFFSET 0.004439 0.124404 -0.038385
		CHANNELS 3 Zrotation Yrotation Xrotation
		JOINT upperback
		{
			OFFSET 0.004488 0.137956 0.026820
			CHANNELS 3 Zrotation Yrotation Xrotation
			JOINT chest
			{
				OFFSET -0.002265 0.056032 0.002855
				CHANNELS 3 Zrotation Yrotation Xrotation
				JOINT lowerneck
				{
					OFFSET -0.013390 0.211636 -0.033468
					CHANNELS 3 Zrotation Yrotation Xrotation
					JOINT upperneck
					{
						OFFSET 0.010113 0.088937 0.050410
						CHANNELS 3 Zrotation Yrotation Xrotation
						End Site
						{
							OFFSET 0.000000 0.000000 0.000000
						}
					}
				}
				JOINT lclavicle
				{
					OFFSET 0.071702 0.114000 -0.018898
					CHANNELS 3 Zrotation Yrotation Xrotation
					JOINT lshoulder
					{
						OFFSET 0.122921 0.045205 -0.019046
						CHANNELS 3 Zrotation Yrotation Xrotation
						JOINT lelbow
						{
							OFFSET 0.255332 -0.015649 -0.022946
							CHANNELS 3 Zrotation Yrotation Xrotation
							JOINT lwrist
							{
								OFFSET 0.265709 0.012698 -0.007375
								CHANNELS 3 Zrotation Yrotation Xrotation
								End Site
								{
									OFFSET 0.000000 0.000000 0.000000
								}
							}
						}
					}
				}
				JOINT rclavicle
				{
					OFFSET -0.082954 0.112472 -0.023707
					CHANNELS 3 Zrotation Yrotation Xrotation
					JOINT rshoulder
					{
						OFFSET -0.113228 0.046853 -0.008472
						CHANNELS 3 Zrotation Yrotation Xrotation
						JOINT relbow
						{
							OFFSET -0.260127 -0.014369 -0.031269
							CHANNELS 3 Zrotation Yrotation Xrotation
							JOINT rwrist
							{
								OFFSET -0.269108 0.006794 -0.006027
								CHANNELS 3 Zrotation Yrotation Xrotation
								End Site
								{
									OFFSET 0.000000 0.000000 0.000000
								}
							}
						}
					}
				}
			}
		}
	}
}
MOTION
Frames: 11
Frame Time: 0.033333
-0.445992 2.977602 1.000551 4.610272 0.007235 85.160928 3.815793 5.264826 10.352101 -3.510678 -0.969574 -3.358791 2.973699 13.085018 -10.633471 0.000000 -0.000000 0.000000 -2.336600 -4.948862 1.207144 3.186560 -7.104838 14.214653 2.254303 -8.923280 -10.040649 0.000000 -0.000000 0.000000 0.861048 -1.031760 0.802581 0.082445 -2.491320 10.405225 -1.018526 -2.219711 -2.901918 3.838455 -0.018391 -1.007168 2.689761 -0.296728 -0.614663 -31.654106 1.407694 3.317985 -56.654979 -3.524259 7.334674 14.598798 -31.595912 0.167555 -5.197603 -6.749298 4.904147 27.162024 3.643347 4.713305 58.491649 1.472471 10.960446 -12.758721 27.724725 -2.058871 4.941585 8.470237 -0.092065 
-0.445957 2.977163 1.000519 4.512904 -0.068772 85.164645 3.741868 5.288669 10.433494 -3.532110 -1.021794 -3.440918 3.294451 13.199184 -10.555559 0.000000 -0.000000 0.000000 -2.415306 -4.816475 1.330056 3.297201 -6.741043 13.986176 2.795348 -9.375119 -10.150484 0.000000 -0.000000 0.000000 0.737214 -0.835180 0.697859 0.156913 -2.607033 10.534911 -1.025339 -2.251533 -2.930560 3.793442 -0.083631 -1.153170 2.745798 -0.215899 -0.376101 -31.640646 1.472163 3.375793 -56.707917 -3.667909 7.526312 14.675796 -31.650047 0.134597 -5.008185 -6.646793 4.712519 27.084373 3.622116 4.808330 58.569912 1.536855 11.071228 -12.890025 27.686058 -2.143091 4.991678 8.389512 -0.147036 
-0.445967 2.976596 1.000456 4.474557 -0.061811 85.161616 3.766685 5.327790 10.512729 -3.547013 -1.025757 -3.531740 3.286813 13.194243 -10.549596 0.000000 -0.000000 0.000000 -2.418274 -4.840513 1.392747 3.292944 -6.780448 13.854975 2.776889 -9.327137 -10.160824 0.000000 -0.000000 0.000000 0.744517 -0.824047 0.592962 0.154800 -2.609006 10.615711 -1.039057 -2.248295 -2.918719 3.806122 -0.077042 -1.182837 2.744867 -0.220310 -0.339844 -31.664188 1.461707 3.330321 -56.741006 -3.762770 7.557797 14.729843 -31.523232 0.155352 -4.934038 -6.747324 4.709590 27.092960 3.608886 4.813913 58.570062 1.528646 11.086712 -12.876011 27.626838 -2.112129 4.979211 8.402972 -0.160923 
-0.445930 2.976099 1.000387 4.432426 -0.048828 85.168196 3.773249 5.334536 10.555327 -3.538653 -1.001492 -3.578454 3.279737 13.210766 -10.547443 0.000000 -0.000000 0.000000 -2.409691 -4.826674 1.421564 3.300344 -6.768746 13.820903 2.778760 -9.305770 -10.156285 0.000000 -0.000000 0.000000 0.776591 -0.843542 0.531269 0.143713 -2.602979 10.634502 -1.056985 -2.240344 -2.907379 3.796070 -0.073103 -1.187236 2.708623 -0.231705 -0.301701 -31.698158 1.468081 3.313520 -56.797560 -3.815456 7.568264 14.850615 -31.493454 0.147071 -4.956529 -6.838404 4.728556 27.086238 3.611300 4.820293 58.595729 1.498266 11.114053 -12.879209 27.598681 -2.059912 4.986799 8.410714 -0.192836 
-0.445914 2.975842 1.000359 4.410435 -0.046719 85.159727 3.776467 5.340266 10.592380 -3.541057 -1.000479 -3.609193 3.279804 13.213278 -10.537645 0.000000 -0.000000 0.000000 -2.407736 -4.812723 1.431025 3.296943 -6.766897 13.836253 2.779616 -9.298422 -10.160273 0.000000 -0.000000 0.000000 0.779461 -0.857797 0.509897 0.144466 -2.596078 10.645829 -1.059810 -2.238340 -2.896966 3.783957 -0.066199 -1.182729 2.660212 -0.240162 -0.264523 -31.705980 1.486059 3.306693 -56.817234 -3.824980 7.572333 14.855580 -31.533418 0.159080 -4.958694 -6.845831 4.728829 27.093070 3.597060 4.819699 58.602532 1.504423 11.123535 -12.880948 27.589653 -2.048956 4.984096 8.403184 -0.191963 
-0.445885 2.975528 1.000310 4.387165 -0.041762 85.156214 3.782409 5.355519 10.636051 -3.536217 -0.985014 -3.649393 3.276483 13.221974 -10.532182 0.000000 -0.000000 0.000000 -2.403161 -4.796072 1.449633 3.295276 -6.772525 13.832372 2.778856 -9.290337 -10.165213 0.000000 -0.000000 0.000000 0.783817 -0.881121 0.460007 0.144255 -2.595589 10.674244 -1.069680 -2.235998 -2.875006 3.772297 -0.008082 -1.192139 2.599950 -0.231900 -0.210673 -31.710438 1.525241 3.297432 -56.844629 -3.836725 7.567568 14.852261 -31.583745 0.180042 -4.956759 -6.843138 4.726427 27.119843 3.569780 4.818485 58.602086 1.534054 11.127165 -12.877754 27.587175 -2.036538 4.976022 8.391854 -0.175289 
-0.445876 2.975214 1.000252 4.349586 -0.037387 85.167170 3.786580 5.367257 10.668503 -3.534771 -0.971229 -3.693405 3.270663 13.225292 -10.532049 0.000000 -0.000000 0.000000 -2.402673 -4.781831 1.465490 3.308020 -6.754956 13.810312 2.788392 -9.283771 -10.170149 0.000000 -0.000000 0.000000 0.785592 -0.897702 0.392587 0.140660 -2.590536 10.709802 -1.086315 -2.230854 -2.858360 3.780676 0.023968 -1.212039 2.570966 -0.235637 -0.135377 -31.725019 1.581480 3.279472 -56.845027 -3.831394 7.563254 14.843853 -31.623396 0.206087 -4.972348 -6.856362 4.734600 27.152647 3.538013 4.815561 58.596259 1.554857 11.143803 -12.861759 27.605725 -2.017840 4.973126 8.388109 -0.162078 
-0.445902 2.974970 1.000200 4.314637 -0.029546 85.167022 3.801492 5.368406 10.683103 -3.543373 -0.953694 -3.684156 3.276150 13.243907 -10.549616 0.000000 -0.000000 0.000000 -2.394531 -4.764492 1.489428 3.318339 -6.743308 13.789052 2.786356 -9.280813 -10.168803 0.000000 -0.000000 0.000000 0.784501 -0.905989 0.372867 0.134220 -2.582981 10.723239 -1.101833 -2.230186 -2.849561 3.807684 0.000952 -1.237005 2.570971 -0.265786 -0.057072 -31.746096 1.633710 3.272462 -56.820083 -3.814416 7.556578 14.830252 -31.650544 0.239550 -4.980507 -6.854249 4.729976 27.175900 3.505043 4.809805 58.601110 1.570475 11.158568 -12.836377 27.638815 -1.984052 4.968348 8.389003 -0.173604 
-0.445942 2.974778 1.000158 4.283723 -0.026211 85.165302 3.805644 5.364718 10.690503 -3.544445 -0.944430 -3.669905 3.281118 13.260614 -10.560972 0.000000 -0.000000 0.000000 -2.385487 -4.748090 1.503960 3.321084 -6.728254 13.780536 2.788757 -9.282305 -10.170942 0.000000 -0.000000 0.000000 0.773591 -0.911339 0.369016 0.121849 -2.584356 10.738657 -1.115837 -2.231124 -2.844104 3.821319 -0.004377 -1.269742 2.592442 -0.269718 -0.037310 -31.741582 1.672891 3.267684 -56.809380 -3.780875 7.548991 14.823370 -31.661925 0.271056 -5.021207 -6.851742 4.744564 27.193929 3.495562 4.808843 58.617185 1.593931 11.167595 -12.820662 27.666703 -1.958396 4.995022 8.393566 -0.166349 
-0.446034 2.974681 1.000097 4.246659 -0.017554 85.155609 3.818621 5.369760 10.696284 -3.542314 -0.926136 -3.640702 3.299176 13.276417 -10.588915 0.000000 -0.000000 0.000000 -2.375321 -4.735994 1.508704 3.328918 -6.716726 13.795030 2.779258 -9.273264 -10.181719 0.000000 -0.000000 0.000000 0.752826 -0.911962 0.394539 0.116382 -2.588146 10.766928 -1.123133 -2.238295 -2.836425 3.821966 0.019757 -1.314577 2.594885 -0.279313 -0.064807 -31.759789 1.717119 3.245966 -56.795899 -3.737466 7.534333 14.831213 -31.638312 0.277795 -5.051740 -6.856582 4.761173 27.236887 3.481253 4.777134 58.613748 1.624587 11.170181 -12.817529 27.704413 -1.951891 5.011018 8.402430 -0.145100 
-0.446104 2.974670 1.000063 4.211096 -0.008598 85.156313 3.830607 5.386695 10.696018 -3.539228 -0.906003 -3.633123 3.314237 13.283699 -10.597698 0.000000 -0.000000 0.000000 -2.363868 -4.725081 1.498940 3.334385 -6.706870 13.806279 2.771964 -9.256125 -10.186531 0.000000 -0.000000 0.000000 0.728097 -0.909497 0.413772 0.122529 -2.588166 10.790449 -1.120976 -2.238180 -2.836770 3.816125 0.050482 -1.323912 2.570512 -0.295885 -0.073400 -31.774451 1.761782 3.237898 -56.801501 -3.697865 7.522513 14.845463 -31.609343 0.278726 -5.054273 -6.837606 4.782514 27.283463 3.462642 4.762367 58.585026 1.663443 11.158470 -12.826408 27.715021 -1.972314 5.010148 8.401457 -0.109450 
